# xmcd CD database file
#
# Track frame offsets:
#	150
#	19229
#	41834
#	66519
#	87984
#
# Disc length: 1489 seconds
#
# Revision: 0
# Processed by: cddbd v1.5.1PL0 Copyright (c) Steve Scherf et al.
# Submitted via: CDex 1.51
#
DISCID=4205cf05
DTITLE=BLACK JACK - Blues and Swing
DYEAR=2005
DGENRE=Jazz
TTITLE0=Imagine my frustration
TTITLE1=Fine and Mellow
TTITLE2=When did you leave heaven?
TTITLE3=Kansas City
TTITLE4=Oh, had i a golden thread
EXTD=YEAR: 2005
EXTT0=
EXTT1=
EXTT2=
EXTT3=
EXTT4=
PLAYORDER=
